# 5-point star generated by generate_star.py
v 0 0 0.040000
v 0.000000 0.500000 0.040000
v 0.117557 0.161803 0.040000
v 0.475528 0.154508 0.040000
v 0.190211 -0.061803 0.040000
v 0.293893 -0.404508 0.040000
v 0.000000 -0.200000 0.040000
v -0.293893 -0.404508 0.040000
v -0.190211 -0.061803 0.040000
v -0.475528 0.154508 0.040000
v -0.117557 0.161803 0.040000
v 0 0 -0.040000
v 0.000000 0.500000 -0.040000
v 0.117557 0.161803 -0.040000
v 0.475528 0.154508 -0.040000
v 0.190211 -0.061803 -0.040000
v 0.293893 -0.404508 -0.040000
v 0.000000 -0.200000 -0.040000
v -0.293893 -0.404508 -0.040000
v -0.190211 -0.061803 -0.040000
v -0.475528 0.154508 -0.040000
v -0.117557 0.161803 -0.040000
f 1 2 3
f 1 3 4
f 1 4 5
f 1 5 6
f 1 6 7
f 1 7 8
f 1 8 9
f 1 9 10
f 1 10 11
f 1 11 2
f 12 14 13
f 12 15 14
f 12 16 15
f 12 17 16
f 12 18 17
f 12 19 18
f 12 20 19
f 12 21 20
f 12 22 21
f 12 13 22
f 2 3 13
f 3 14 13
f 3 4 14
f 4 15 14
f 4 5 15
f 5 16 15
f 5 6 16
f 6 17 16
f 6 7 17
f 7 18 17
f 7 8 18
f 8 19 18
f 8 9 19
f 9 20 19
f 9 10 20
f 10 21 20
f 10 11 21
f 11 22 21
f 11 2 22
f 2 13 22
